<svg width="17.250244" height="14.250488" viewBox="0 0 17.2502 14.2505" fill="none"
    xmlns="http://www.w3.org/2000/svg" xmlns:xlink="http://www.w3.org/1999/xlink">

    <defs />
    <path id="Vector"
        d="M0.1 7.39L6.85 14.14C6.93 14.21 7.02 14.25 7.12 14.25C7.22 14.25 7.32 14.21 7.39 14.14C7.46 14.07 7.5 13.97 7.5 13.87C7.5 13.77 7.46 13.68 7.39 13.6L1.28 7.5L16.87 7.5C16.97 7.5 17.07 7.46 17.14 7.39C17.21 7.32 17.25 7.22 17.25 7.12C17.25 7.02 17.21 6.93 17.14 6.86C17.07 6.78 16.97 6.75 16.87 6.75L1.28 6.75L7.39 0.64C7.46 0.57 7.5 0.47 7.5 0.37C7.5 0.27 7.46 0.18 7.39 0.1C7.32 0.03 7.22 0 7.12 0C7.02 0 6.93 0.03 6.85 0.1L0.1 6.85C0.07 6.89 0.04 6.93 0.02 6.98C0 7.02 0 7.07 0 7.12C0 7.17 0 7.22 0.02 7.26C0.04 7.31 0.07 7.35 0.1 7.39Z"
        fill="#FFFFFF" fill-opacity="0.480000" fill-rule="nonzero" />
</svg>