<svg width="24.000000" height="24.000000" viewBox="0 0 24 24" fill="none"
    xmlns="http://www.w3.org/2000/svg" xmlns:xlink="http://www.w3.org/1999/xlink">
    <defs />
    <g opacity="0.000000" />
    <path id="Vector"
        d="M8.09 11.62L3.4 11.62C3.48 6.95 4.4 6.18 7.27 4.48C7.6 4.29 7.71 3.86 7.51 3.53C7.31 3.19 6.88 3.09 6.54 3.29C3.16 5.29 1.98 6.51 1.98 12.32L1.98 17.71C1.98 19.42 3.38 20.81 5.08 20.81L8.08 20.81C9.84 20.81 11.17 19.48 11.17 17.71L11.17 14.72C11.18 12.96 9.85 11.62 8.09 11.62Z"
        fill="#B8EC4C" fill-opacity="1.000000" fill-rule="nonzero" />
    <g opacity="0.400000">
        <path id="Vector"
            d="M18.91 11.62L14.22 11.62C14.3 6.95 15.22 6.18 18.09 4.48C18.42 4.29 18.53 3.86 18.33 3.53C18.12 3.19 17.7 3.09 17.37 3.29C13.99 5.29 12.81 6.51 12.81 12.32L12.81 17.71C12.81 19.42 14.2 20.81 15.9 20.81L18.9 20.81C20.66 20.81 21.99 19.48 21.99 17.71L21.99 14.72C22 12.96 20.67 11.62 18.91 11.62Z"
            fill="#B8EC4C" fill-opacity="1.000000" fill-rule="nonzero" />
    </g>
</svg>