<svg width="17.250244" height="14.250488" viewBox="0 0 17.2502 14.2505" fill="none"
    xmlns="http://www.w3.org/2000/svg" xmlns:xlink="http://www.w3.org/1999/xlink">

    <defs />
    <path id="Vector"
        d="M17.14 7.39L10.39 14.14C10.31 14.21 10.22 14.25 10.12 14.25C10.02 14.25 9.93 14.21 9.85 14.14C9.78 14.07 9.74 13.97 9.74 13.87C9.74 13.77 9.78 13.68 9.85 13.6L15.96 7.5L0.37 7.5C0.27 7.5 0.18 7.46 0.1 7.39C0.03 7.32 0 7.22 0 7.12C0 7.02 0.03 6.93 0.1 6.86C0.18 6.78 0.27 6.75 0.37 6.75L15.96 6.75L9.85 0.64C9.78 0.57 9.74 0.47 9.74 0.37C9.74 0.27 9.78 0.18 9.85 0.1C9.93 0.03 10.02 0 10.12 0C10.22 0 10.31 0.03 10.39 0.1L17.14 6.85C17.17 6.89 17.2 6.93 17.22 6.98C17.24 7.02 17.25 7.07 17.25 7.12C17.25 7.17 17.24 7.22 17.22 7.26C17.2 7.31 17.17 7.35 17.14 7.39Z"
        fill="#FFFFFF" fill-opacity="0.480000" fill-rule="nonzero" />
</svg>